<?xml version="1.0" standalone="no"?>
<!DOCTYPE svg PUBLIC "-//W3C//DTD SVG 20010904//EN"
 "http://www.w3.org/TR/2001/REC-SVG-20010904/DTD/svg10.dtd">
<svg version="1.0" xmlns="http://www.w3.org/2000/svg"
 width="100px" height="100px" viewBox="0 0 512.000000 512.000000"
 preserveAspectRatio="xMidYMid meet">

<g transform="translate(0.000000,512.000000) scale(0.100000,-0.100000)"
fill="#000000" stroke="none">
<path d="M2591 4645 c-101 -23 -185 -68 -258 -137 -97 -94 -136 -170 -153
-300 -24 -193 58 -375 217 -481 95 -63 175 -88 303 -94 184 -9 327 42 441 158
150 152 188 380 94 574 -59 123 -160 210 -304 263 -85 30 -245 39 -340 17z
m272 -205 c84 -26 164 -96 198 -172 31 -72 32 -184 1 -248 -76 -157 -273 -229
-465 -170 -84 26 -164 96 -198 172 -31 72 -31 172 1 246 67 155 271 231 463
172z"/>
<path d="M2314 3560 c-12 -4 -31 -21 -43 -36 l-21 -27 0 -1058 c0 -646 -4
-1067 -10 -1083 -13 -35 -62 -46 -212 -46 -127 0 -128 0 -160 -29 l-33 -29 0
-367 0 -367 33 -29 32 -29 218 0 c319 0 465 23 630 101 246 115 379 286 445
574 21 88 21 117 24 1227 l4 1137 -30 33 -29 33 -414 2 c-227 1 -423 -2 -434
-7z m706 -1212 c0 -842 -3 -1040 -15 -1118 -32 -211 -106 -342 -244 -434 -144
-96 -314 -136 -578 -136 l-153 0 0 225 0 225 70 0 c170 0 273 53 328 168 16
34 17 111 20 1065 l2 1027 285 0 285 0 0 -1022z"/>
</g>
</svg>
